<svg xmlns="http://www.w3.org/2000/svg" viewBox="0 0 64 64">
  <defs>
    <linearGradient id="bg" x1="0" y1="0" x2="1" y2="1">
      <stop offset="0%" stop-color="#0D6B7E"/>
      <stop offset="100%" stop-color="#43A047"/>
    </linearGradient>
  </defs>
  <rect x="0" y="0" width="64" height="64" rx="14" fill="url(#bg)"/>
  <g fill="none" stroke="#ffffff" stroke-width="3.4" stroke-linecap="round" stroke-linejoin="round">
    <path d="M32 14c-6 8-10 14-10 19a10 10 0 0 0 20 0c0-5-4-11-10-19z" fill="#ffffff" fill-opacity="0.18"/>
    <path d="M10 44c2 1.6 4 2.5 7 2.5 5 0 5-3.5 10-3.5s5 3.5 10 3.5 5-3.5 10-3.5c3 0 5 .9 7 2.5"/>
    <path d="M10 52c2 1.6 4 2.5 7 2.5 5 0 5-3.5 10-3.5s5 3.5 10 3.5 5-3.5 10-3.5c3 0 5 .9 7 2.5"/>
  </g>
</svg>
